<svg width="28" height="20" viewBox="0 0 28 20" fill="none" xmlns="http://www.w3.org/2000/svg">
<path d="M17.6172 4.42578C16.8008 4.76953 15.8125 4.55469 15.2109 3.86719C14.2656 2.79297 12.8906 2.0625 11.3438 2.0625C8.46484 2.0625 6.1875 4.38281 6.1875 7.21875V7.26172C6.1875 8.12109 5.62891 8.89453 4.8125 9.19531C3.17969 9.75391 2.0625 11.3008 2.0625 13.0625C2.0625 15.3398 3.91016 17.1875 6.1875 17.1875H21.6562H21.7852C21.7852 17.1875 21.8281 17.1875 21.8711 17.1875C23.8477 17.1016 25.4375 15.4258 25.4375 13.4062C25.4375 11.8594 24.4922 10.5273 23.1602 9.96875C22.3008 9.58203 21.7852 8.67969 21.957 7.73438C21.957 7.5625 22 7.39062 22 7.21875C22 5.54297 20.582 4.125 18.9062 4.125C18.4336 4.125 18.0039 4.25391 17.6172 4.42578ZM22 19.25H21.6562H19.9375H6.1875C2.75 19.25 0 16.5 0 13.0625C0 10.3984 1.71875 8.07812 4.125 7.26172V7.21875C4.125 3.26562 7.34766 0 11.3438 0C13.4922 0 15.4688 0.988281 16.8008 2.53516C17.4453 2.23438 18.1328 2.0625 18.9062 2.0625C21.7422 2.0625 24.0625 4.38281 24.0625 7.21875C24.0625 7.51953 24.0195 7.77734 23.9766 8.07812C26.0391 8.98047 27.5 11.043 27.5 13.4062C27.5 16.543 25.0508 19.0781 22 19.25Z" fill="#008A17"/>
</svg>
