<svg width="25" height="25" viewBox="0 0 25 25" fill="none" xmlns="http://www.w3.org/2000/svg">
<path d="M19.1445 18.5215C18.1562 16.8457 16.3945 15.7285 14.375 15.7285H11.625C9.5625 15.7285 7.80078 16.8457 6.85547 18.5215C8.35938 20.1973 10.5508 21.2285 13 21.2285C15.4062 21.2285 17.5977 20.1973 19.1445 18.5215ZM2 12.9785C2 9.06836 4.0625 5.45898 7.5 3.48242C10.8945 1.50586 15.0625 1.50586 18.5 3.48242C21.8945 5.45898 24 9.06836 24 12.9785C24 16.9316 21.8945 20.541 18.5 22.5176C15.0625 24.4941 10.8945 24.4941 7.5 22.5176C4.0625 20.541 2 16.9316 2 12.9785ZM13 13.666C14.0742 13.666 15.1055 13.1074 15.6641 12.1191C16.2227 11.1738 16.2227 10.0137 15.6641 9.02539C15.1055 8.08008 14.0742 7.47852 13 7.47852C11.8828 7.47852 10.8516 8.08008 10.293 9.02539C9.73438 10.0137 9.73438 11.1738 10.293 12.1191C10.8516 13.1074 11.8828 13.666 13 13.666Z" fill="#363632"/>
</svg>
